<mxfile host="app.diagrams.net" modified="2023-02-21T06:19:58.127Z" agent="5.0 (Windows NT 10.0; Win64; x64) AppleWebKit/537.36 (KHTML, like Gecko) Chrome/110.0.0.0 Safari/537.36" etag="0yppZ3Vm6CIiY5kBFTyd" version="20.8.18" type="github">
  <diagram name="第 1 页" id="8SuLuBTpwIkDqSjnMxQ3">
    <mxGraphModel dx="1687" dy="899" grid="1" gridSize="10" guides="1" tooltips="1" connect="1" arrows="1" fold="1" page="1" pageScale="1" pageWidth="827" pageHeight="1169" math="0" shadow="0">
      <root>
        <mxCell id="0" />
        <mxCell id="1" parent="0" />
        <mxCell id="oWvnXfuGY_ad9esaMSXd-9" value="" style="rounded=0;whiteSpace=wrap;html=1;fillColor=#d5e8d4;strokeColor=#82b366;" vertex="1" parent="1">
          <mxGeometry x="640" y="190" width="380" height="520" as="geometry" />
        </mxCell>
        <mxCell id="oWvnXfuGY_ad9esaMSXd-35" value="" style="rounded=0;whiteSpace=wrap;html=1;fillColor=#e3c800;fontColor=#000000;strokeColor=#B09500;" vertex="1" parent="1">
          <mxGeometry x="665" y="400" width="270" height="250" as="geometry" />
        </mxCell>
        <mxCell id="oWvnXfuGY_ad9esaMSXd-2" value="" style="rounded=0;whiteSpace=wrap;html=1;fillColor=#d5e8d4;strokeColor=#82b366;" vertex="1" parent="1">
          <mxGeometry x="100" y="170" width="300" height="520" as="geometry" />
        </mxCell>
        <mxCell id="oWvnXfuGY_ad9esaMSXd-3" value="单机运行" style="text;html=1;align=center;verticalAlign=middle;resizable=0;points=[];autosize=1;strokeColor=#b85450;fillColor=#f8cecc;" vertex="1" parent="1">
          <mxGeometry x="100" y="170" width="70" height="30" as="geometry" />
        </mxCell>
        <mxCell id="oWvnXfuGY_ad9esaMSXd-6" style="edgeStyle=orthogonalEdgeStyle;rounded=0;orthogonalLoop=1;jettySize=auto;html=1;entryX=0.5;entryY=0;entryDx=0;entryDy=0;" edge="1" parent="1" source="oWvnXfuGY_ad9esaMSXd-4" target="oWvnXfuGY_ad9esaMSXd-5">
          <mxGeometry relative="1" as="geometry" />
        </mxCell>
        <mxCell id="oWvnXfuGY_ad9esaMSXd-4" value="应用程序&lt;br&gt;" style="rounded=1;whiteSpace=wrap;html=1;fillColor=#fff2cc;strokeColor=#d6b656;" vertex="1" parent="1">
          <mxGeometry x="180" y="210" width="120" height="60" as="geometry" />
        </mxCell>
        <mxCell id="oWvnXfuGY_ad9esaMSXd-8" value="" style="edgeStyle=orthogonalEdgeStyle;rounded=0;orthogonalLoop=1;jettySize=auto;html=1;" edge="1" parent="1" source="oWvnXfuGY_ad9esaMSXd-5" target="oWvnXfuGY_ad9esaMSXd-7">
          <mxGeometry relative="1" as="geometry" />
        </mxCell>
        <mxCell id="oWvnXfuGY_ad9esaMSXd-5" value="驱动程序" style="rounded=1;whiteSpace=wrap;html=1;fillColor=#dae8fc;strokeColor=#6c8ebf;" vertex="1" parent="1">
          <mxGeometry x="180" y="310" width="120" height="60" as="geometry" />
        </mxCell>
        <mxCell id="oWvnXfuGY_ad9esaMSXd-7" value="MongoDB" style="rounded=1;whiteSpace=wrap;html=1;fillColor=#647687;fontColor=#ffffff;strokeColor=#314354;" vertex="1" parent="1">
          <mxGeometry x="180" y="400" width="120" height="60" as="geometry" />
        </mxCell>
        <mxCell id="oWvnXfuGY_ad9esaMSXd-10" value="复制集" style="text;html=1;align=center;verticalAlign=middle;resizable=0;points=[];autosize=1;strokeColor=#b85450;fillColor=#f8cecc;" vertex="1" parent="1">
          <mxGeometry x="645" y="190" width="60" height="30" as="geometry" />
        </mxCell>
        <mxCell id="oWvnXfuGY_ad9esaMSXd-11" style="edgeStyle=orthogonalEdgeStyle;rounded=0;orthogonalLoop=1;jettySize=auto;html=1;entryX=0.5;entryY=0;entryDx=0;entryDy=0;" edge="1" parent="1" source="oWvnXfuGY_ad9esaMSXd-12" target="oWvnXfuGY_ad9esaMSXd-14">
          <mxGeometry relative="1" as="geometry" />
        </mxCell>
        <mxCell id="oWvnXfuGY_ad9esaMSXd-12" value="应用程序&lt;br&gt;" style="rounded=1;whiteSpace=wrap;html=1;fillColor=#fff2cc;strokeColor=#d6b656;" vertex="1" parent="1">
          <mxGeometry x="720" y="230" width="120" height="60" as="geometry" />
        </mxCell>
        <mxCell id="oWvnXfuGY_ad9esaMSXd-13" value="" style="edgeStyle=orthogonalEdgeStyle;rounded=0;orthogonalLoop=1;jettySize=auto;html=1;" edge="1" parent="1" source="oWvnXfuGY_ad9esaMSXd-14" target="oWvnXfuGY_ad9esaMSXd-15">
          <mxGeometry relative="1" as="geometry" />
        </mxCell>
        <mxCell id="oWvnXfuGY_ad9esaMSXd-14" value="驱动程序" style="rounded=1;whiteSpace=wrap;html=1;fillColor=#dae8fc;strokeColor=#6c8ebf;" vertex="1" parent="1">
          <mxGeometry x="720" y="320" width="120" height="60" as="geometry" />
        </mxCell>
        <mxCell id="oWvnXfuGY_ad9esaMSXd-38" value="" style="edgeStyle=orthogonalEdgeStyle;rounded=0;orthogonalLoop=1;jettySize=auto;html=1;" edge="1" parent="1" source="oWvnXfuGY_ad9esaMSXd-15" target="oWvnXfuGY_ad9esaMSXd-31">
          <mxGeometry relative="1" as="geometry" />
        </mxCell>
        <mxCell id="oWvnXfuGY_ad9esaMSXd-39" style="edgeStyle=orthogonalEdgeStyle;rounded=0;orthogonalLoop=1;jettySize=auto;html=1;entryX=1;entryY=0.5;entryDx=0;entryDy=0;" edge="1" parent="1" source="oWvnXfuGY_ad9esaMSXd-15" target="oWvnXfuGY_ad9esaMSXd-31">
          <mxGeometry relative="1" as="geometry">
            <Array as="points">
              <mxPoint x="860" y="430" />
              <mxPoint x="860" y="500" />
            </Array>
          </mxGeometry>
        </mxCell>
        <mxCell id="oWvnXfuGY_ad9esaMSXd-40" style="edgeStyle=orthogonalEdgeStyle;rounded=0;orthogonalLoop=1;jettySize=auto;html=1;entryX=1;entryY=0.5;entryDx=0;entryDy=0;" edge="1" parent="1" source="oWvnXfuGY_ad9esaMSXd-15" target="oWvnXfuGY_ad9esaMSXd-32">
          <mxGeometry relative="1" as="geometry">
            <Array as="points">
              <mxPoint x="860" y="430" />
              <mxPoint x="860" y="585" />
            </Array>
          </mxGeometry>
        </mxCell>
        <mxCell id="oWvnXfuGY_ad9esaMSXd-15" value="MongoDB&lt;br&gt;Primary" style="rounded=1;whiteSpace=wrap;html=1;fillColor=#647687;fontColor=#ffffff;strokeColor=#314354;" vertex="1" parent="1">
          <mxGeometry x="720" y="400" width="120" height="50" as="geometry" />
        </mxCell>
        <mxCell id="oWvnXfuGY_ad9esaMSXd-24" value="" style="rounded=0;whiteSpace=wrap;html=1;fillColor=#d5e8d4;strokeColor=#82b366;" vertex="1" parent="1">
          <mxGeometry x="1130" y="180" width="700" height="420" as="geometry" />
        </mxCell>
        <mxCell id="oWvnXfuGY_ad9esaMSXd-25" value="主从模式" style="text;html=1;align=center;verticalAlign=middle;resizable=0;points=[];autosize=1;strokeColor=#b85450;fillColor=#f8cecc;" vertex="1" parent="1">
          <mxGeometry x="1145" y="180" width="70" height="30" as="geometry" />
        </mxCell>
        <mxCell id="oWvnXfuGY_ad9esaMSXd-26" style="edgeStyle=orthogonalEdgeStyle;rounded=0;orthogonalLoop=1;jettySize=auto;html=1;entryX=0.5;entryY=0;entryDx=0;entryDy=0;" edge="1" parent="1" source="oWvnXfuGY_ad9esaMSXd-27" target="oWvnXfuGY_ad9esaMSXd-29">
          <mxGeometry relative="1" as="geometry" />
        </mxCell>
        <mxCell id="oWvnXfuGY_ad9esaMSXd-27" value="应用程序&lt;br&gt;" style="rounded=1;whiteSpace=wrap;html=1;fillColor=#fff2cc;strokeColor=#d6b656;" vertex="1" parent="1">
          <mxGeometry x="1475" y="200" width="120" height="60" as="geometry" />
        </mxCell>
        <mxCell id="oWvnXfuGY_ad9esaMSXd-28" value="" style="edgeStyle=orthogonalEdgeStyle;rounded=0;orthogonalLoop=1;jettySize=auto;html=1;" edge="1" parent="1" source="oWvnXfuGY_ad9esaMSXd-29" target="oWvnXfuGY_ad9esaMSXd-30">
          <mxGeometry relative="1" as="geometry" />
        </mxCell>
        <mxCell id="oWvnXfuGY_ad9esaMSXd-29" value="驱动程序" style="rounded=1;whiteSpace=wrap;html=1;fillColor=#dae8fc;strokeColor=#6c8ebf;" vertex="1" parent="1">
          <mxGeometry x="1475" y="280" width="120" height="60" as="geometry" />
        </mxCell>
        <mxCell id="oWvnXfuGY_ad9esaMSXd-58" style="edgeStyle=orthogonalEdgeStyle;rounded=0;orthogonalLoop=1;jettySize=auto;html=1;exitX=0.5;exitY=1;exitDx=0;exitDy=0;" edge="1" parent="1" source="oWvnXfuGY_ad9esaMSXd-30" target="oWvnXfuGY_ad9esaMSXd-57">
          <mxGeometry relative="1" as="geometry" />
        </mxCell>
        <mxCell id="oWvnXfuGY_ad9esaMSXd-59" value="" style="edgeStyle=orthogonalEdgeStyle;rounded=0;orthogonalLoop=1;jettySize=auto;html=1;" edge="1" parent="1" source="oWvnXfuGY_ad9esaMSXd-30" target="oWvnXfuGY_ad9esaMSXd-55">
          <mxGeometry relative="1" as="geometry" />
        </mxCell>
        <mxCell id="oWvnXfuGY_ad9esaMSXd-30" value="MongoDB" style="rounded=1;whiteSpace=wrap;html=1;fillColor=#647687;fontColor=#ffffff;strokeColor=#314354;" vertex="1" parent="1">
          <mxGeometry x="1475" y="380" width="120" height="60" as="geometry" />
        </mxCell>
        <mxCell id="oWvnXfuGY_ad9esaMSXd-34" value="" style="edgeStyle=orthogonalEdgeStyle;rounded=0;orthogonalLoop=1;jettySize=auto;html=1;" edge="1" parent="1" source="oWvnXfuGY_ad9esaMSXd-31" target="oWvnXfuGY_ad9esaMSXd-32">
          <mxGeometry relative="1" as="geometry" />
        </mxCell>
        <mxCell id="oWvnXfuGY_ad9esaMSXd-31" value="MongoDB&lt;br style=&quot;border-color: var(--border-color);&quot;&gt;Secondary" style="rounded=1;whiteSpace=wrap;html=1;fillColor=#647687;fontColor=#ffffff;strokeColor=#314354;" vertex="1" parent="1">
          <mxGeometry x="720" y="470" width="120" height="60" as="geometry" />
        </mxCell>
        <mxCell id="oWvnXfuGY_ad9esaMSXd-32" value="MongoDB&lt;br style=&quot;border-color: var(--border-color);&quot;&gt;Secondary" style="rounded=1;whiteSpace=wrap;html=1;fillColor=#647687;fontColor=#ffffff;strokeColor=#314354;" vertex="1" parent="1">
          <mxGeometry x="720" y="555" width="120" height="60" as="geometry" />
        </mxCell>
        <mxCell id="oWvnXfuGY_ad9esaMSXd-41" value="" style="rounded=0;whiteSpace=wrap;html=1;fillColor=#d5e8d4;strokeColor=#82b366;" vertex="1" parent="1">
          <mxGeometry x="1960" y="180" width="380" height="520" as="geometry" />
        </mxCell>
        <mxCell id="oWvnXfuGY_ad9esaMSXd-42" value="" style="rounded=0;whiteSpace=wrap;html=1;fillColor=#e3c800;fontColor=#000000;strokeColor=#B09500;" vertex="1" parent="1">
          <mxGeometry x="1985" y="390" width="270" height="250" as="geometry" />
        </mxCell>
        <mxCell id="oWvnXfuGY_ad9esaMSXd-43" value="复制集" style="text;html=1;align=center;verticalAlign=middle;resizable=0;points=[];autosize=1;strokeColor=#b85450;fillColor=#f8cecc;" vertex="1" parent="1">
          <mxGeometry x="1965" y="180" width="60" height="30" as="geometry" />
        </mxCell>
        <mxCell id="oWvnXfuGY_ad9esaMSXd-44" style="edgeStyle=orthogonalEdgeStyle;rounded=0;orthogonalLoop=1;jettySize=auto;html=1;entryX=0.5;entryY=0;entryDx=0;entryDy=0;" edge="1" parent="1" source="oWvnXfuGY_ad9esaMSXd-45" target="oWvnXfuGY_ad9esaMSXd-47">
          <mxGeometry relative="1" as="geometry" />
        </mxCell>
        <mxCell id="oWvnXfuGY_ad9esaMSXd-45" value="应用程序&lt;br&gt;" style="rounded=1;whiteSpace=wrap;html=1;fillColor=#fff2cc;strokeColor=#d6b656;" vertex="1" parent="1">
          <mxGeometry x="2040" y="220" width="120" height="60" as="geometry" />
        </mxCell>
        <mxCell id="oWvnXfuGY_ad9esaMSXd-46" value="" style="edgeStyle=orthogonalEdgeStyle;rounded=0;orthogonalLoop=1;jettySize=auto;html=1;" edge="1" parent="1" source="oWvnXfuGY_ad9esaMSXd-47" target="oWvnXfuGY_ad9esaMSXd-51">
          <mxGeometry relative="1" as="geometry" />
        </mxCell>
        <mxCell id="oWvnXfuGY_ad9esaMSXd-47" value="驱动程序" style="rounded=1;whiteSpace=wrap;html=1;fillColor=#dae8fc;strokeColor=#6c8ebf;" vertex="1" parent="1">
          <mxGeometry x="2040" y="310" width="120" height="60" as="geometry" />
        </mxCell>
        <mxCell id="oWvnXfuGY_ad9esaMSXd-48" value="" style="edgeStyle=orthogonalEdgeStyle;rounded=0;orthogonalLoop=1;jettySize=auto;html=1;" edge="1" parent="1" source="oWvnXfuGY_ad9esaMSXd-51" target="oWvnXfuGY_ad9esaMSXd-53">
          <mxGeometry relative="1" as="geometry" />
        </mxCell>
        <mxCell id="oWvnXfuGY_ad9esaMSXd-49" style="edgeStyle=orthogonalEdgeStyle;rounded=0;orthogonalLoop=1;jettySize=auto;html=1;entryX=1;entryY=0.5;entryDx=0;entryDy=0;" edge="1" parent="1" source="oWvnXfuGY_ad9esaMSXd-51" target="oWvnXfuGY_ad9esaMSXd-53">
          <mxGeometry relative="1" as="geometry">
            <Array as="points">
              <mxPoint x="2180" y="420" />
              <mxPoint x="2180" y="490" />
            </Array>
          </mxGeometry>
        </mxCell>
        <mxCell id="oWvnXfuGY_ad9esaMSXd-50" style="edgeStyle=orthogonalEdgeStyle;rounded=0;orthogonalLoop=1;jettySize=auto;html=1;entryX=1;entryY=0.5;entryDx=0;entryDy=0;" edge="1" parent="1" source="oWvnXfuGY_ad9esaMSXd-51" target="oWvnXfuGY_ad9esaMSXd-54">
          <mxGeometry relative="1" as="geometry">
            <Array as="points">
              <mxPoint x="2180" y="420" />
              <mxPoint x="2180" y="575" />
            </Array>
          </mxGeometry>
        </mxCell>
        <mxCell id="oWvnXfuGY_ad9esaMSXd-51" value="MongoDB&lt;br&gt;Primary" style="rounded=1;whiteSpace=wrap;html=1;fillColor=#647687;fontColor=#ffffff;strokeColor=#314354;" vertex="1" parent="1">
          <mxGeometry x="2040" y="390" width="120" height="50" as="geometry" />
        </mxCell>
        <mxCell id="oWvnXfuGY_ad9esaMSXd-52" value="" style="edgeStyle=orthogonalEdgeStyle;rounded=0;orthogonalLoop=1;jettySize=auto;html=1;" edge="1" parent="1" source="oWvnXfuGY_ad9esaMSXd-53" target="oWvnXfuGY_ad9esaMSXd-54">
          <mxGeometry relative="1" as="geometry" />
        </mxCell>
        <mxCell id="oWvnXfuGY_ad9esaMSXd-53" value="MongoDB&lt;br style=&quot;border-color: var(--border-color);&quot;&gt;Secondary" style="rounded=1;whiteSpace=wrap;html=1;fillColor=#647687;fontColor=#ffffff;strokeColor=#314354;" vertex="1" parent="1">
          <mxGeometry x="2040" y="460" width="120" height="60" as="geometry" />
        </mxCell>
        <mxCell id="oWvnXfuGY_ad9esaMSXd-54" value="&lt;strong style=&quot;margin: 0px; padding: 0px; color: rgb(51, 51, 51); font-family: verdana, Arial, Helvetica, sans-serif; font-size: 14px; text-align: start; background-color: rgb(255, 255, 255);&quot;&gt;arbiter&lt;/strong&gt;" style="rounded=1;whiteSpace=wrap;html=1;fillColor=#647687;fontColor=#ffffff;strokeColor=#314354;" vertex="1" parent="1">
          <mxGeometry x="2040" y="545" width="120" height="60" as="geometry" />
        </mxCell>
        <mxCell id="oWvnXfuGY_ad9esaMSXd-60" style="edgeStyle=orthogonalEdgeStyle;rounded=0;orthogonalLoop=1;jettySize=auto;html=1;" edge="1" parent="1" target="oWvnXfuGY_ad9esaMSXd-56">
          <mxGeometry relative="1" as="geometry">
            <mxPoint x="1535" y="440" as="sourcePoint" />
            <Array as="points">
              <mxPoint x="1535" y="460" />
              <mxPoint x="1690" y="460" />
            </Array>
          </mxGeometry>
        </mxCell>
        <mxCell id="oWvnXfuGY_ad9esaMSXd-55" value="MongoDB&lt;br style=&quot;border-color: var(--border-color);&quot;&gt;Secondary" style="whiteSpace=wrap;html=1;fillColor=#647687;strokeColor=#314354;fontColor=#ffffff;rounded=1;" vertex="1" parent="1">
          <mxGeometry x="1475" y="480" width="120" height="60" as="geometry" />
        </mxCell>
        <mxCell id="oWvnXfuGY_ad9esaMSXd-56" value="MongoDB&lt;br style=&quot;border-color: var(--border-color);&quot;&gt;Secondary" style="whiteSpace=wrap;html=1;fillColor=#647687;strokeColor=#314354;fontColor=#ffffff;rounded=1;" vertex="1" parent="1">
          <mxGeometry x="1670" y="485" width="120" height="60" as="geometry" />
        </mxCell>
        <mxCell id="oWvnXfuGY_ad9esaMSXd-57" value="MongoDB&lt;br style=&quot;border-color: var(--border-color);&quot;&gt;Secondary" style="whiteSpace=wrap;html=1;fillColor=#647687;strokeColor=#314354;fontColor=#ffffff;rounded=1;" vertex="1" parent="1">
          <mxGeometry x="1300" y="480" width="120" height="60" as="geometry" />
        </mxCell>
        <mxCell id="oWvnXfuGY_ad9esaMSXd-63" value="" style="rounded=0;whiteSpace=wrap;html=1;fillColor=#d5e8d4;strokeColor=#82b366;" vertex="1" parent="1">
          <mxGeometry x="2580" width="730" height="685" as="geometry" />
        </mxCell>
        <mxCell id="oWvnXfuGY_ad9esaMSXd-64" value="" style="rounded=0;whiteSpace=wrap;html=1;fillColor=#e3c800;fontColor=#000000;strokeColor=#B09500;" vertex="1" parent="1">
          <mxGeometry x="2670" y="380" width="150" height="260" as="geometry" />
        </mxCell>
        <mxCell id="oWvnXfuGY_ad9esaMSXd-66" style="edgeStyle=orthogonalEdgeStyle;rounded=0;orthogonalLoop=1;jettySize=auto;html=1;entryX=0.5;entryY=0;entryDx=0;entryDy=0;" edge="1" parent="1" source="oWvnXfuGY_ad9esaMSXd-67" target="oWvnXfuGY_ad9esaMSXd-69">
          <mxGeometry relative="1" as="geometry" />
        </mxCell>
        <mxCell id="oWvnXfuGY_ad9esaMSXd-67" value="应用程序&lt;br&gt;" style="rounded=1;whiteSpace=wrap;html=1;fillColor=#fff2cc;strokeColor=#d6b656;" vertex="1" parent="1">
          <mxGeometry x="2890" y="40" width="120" height="60" as="geometry" />
        </mxCell>
        <mxCell id="oWvnXfuGY_ad9esaMSXd-68" value="" style="edgeStyle=orthogonalEdgeStyle;rounded=0;orthogonalLoop=1;jettySize=auto;html=1;entryX=0.5;entryY=0;entryDx=0;entryDy=0;" edge="1" parent="1" target="oWvnXfuGY_ad9esaMSXd-64">
          <mxGeometry relative="1" as="geometry">
            <mxPoint x="2950" y="350" as="sourcePoint" />
            <mxPoint x="2750" y="370" as="targetPoint" />
          </mxGeometry>
        </mxCell>
        <mxCell id="oWvnXfuGY_ad9esaMSXd-69" value="驱动程序" style="rounded=1;whiteSpace=wrap;html=1;fillColor=#dae8fc;strokeColor=#6c8ebf;" vertex="1" parent="1">
          <mxGeometry x="2890" y="150" width="120" height="60" as="geometry" />
        </mxCell>
        <mxCell id="oWvnXfuGY_ad9esaMSXd-73" value="MongoDB&lt;br&gt;Primary" style="rounded=1;whiteSpace=wrap;html=1;fillColor=#647687;fontColor=#ffffff;strokeColor=#314354;" vertex="1" parent="1">
          <mxGeometry x="2680" y="400" width="120" height="50" as="geometry" />
        </mxCell>
        <mxCell id="oWvnXfuGY_ad9esaMSXd-75" value="MongoDB&lt;br style=&quot;border-color: var(--border-color);&quot;&gt;Secondary" style="rounded=1;whiteSpace=wrap;html=1;fillColor=#647687;fontColor=#ffffff;strokeColor=#314354;" vertex="1" parent="1">
          <mxGeometry x="2680" y="470" width="120" height="60" as="geometry" />
        </mxCell>
        <mxCell id="oWvnXfuGY_ad9esaMSXd-76" value="MongoDB&lt;br style=&quot;border-color: var(--border-color);&quot;&gt;Secondary" style="rounded=1;whiteSpace=wrap;html=1;fillColor=#647687;fontColor=#ffffff;strokeColor=#314354;" vertex="1" parent="1">
          <mxGeometry x="2680" y="555" width="120" height="60" as="geometry" />
        </mxCell>
        <mxCell id="oWvnXfuGY_ad9esaMSXd-120" value="" style="edgeStyle=orthogonalEdgeStyle;rounded=0;orthogonalLoop=1;jettySize=auto;html=1;" edge="1" parent="1" source="oWvnXfuGY_ad9esaMSXd-104" target="oWvnXfuGY_ad9esaMSXd-107">
          <mxGeometry relative="1" as="geometry">
            <Array as="points">
              <mxPoint x="2950" y="350" />
              <mxPoint x="2930" y="350" />
            </Array>
          </mxGeometry>
        </mxCell>
        <mxCell id="oWvnXfuGY_ad9esaMSXd-121" style="edgeStyle=orthogonalEdgeStyle;rounded=0;orthogonalLoop=1;jettySize=auto;html=1;entryX=0.627;entryY=-0.012;entryDx=0;entryDy=0;entryPerimeter=0;" edge="1" parent="1" source="oWvnXfuGY_ad9esaMSXd-104" target="oWvnXfuGY_ad9esaMSXd-110">
          <mxGeometry relative="1" as="geometry">
            <Array as="points">
              <mxPoint x="2950" y="350" />
              <mxPoint x="3154" y="350" />
            </Array>
          </mxGeometry>
        </mxCell>
        <mxCell id="oWvnXfuGY_ad9esaMSXd-104" value="mongos" style="whiteSpace=wrap;html=1;fillColor=#dae8fc;strokeColor=#6c8ebf;rounded=1;" vertex="1" parent="1">
          <mxGeometry x="2890" y="240" width="120" height="60" as="geometry" />
        </mxCell>
        <mxCell id="oWvnXfuGY_ad9esaMSXd-105" value="mongos" style="whiteSpace=wrap;html=1;fillColor=#dae8fc;strokeColor=#6c8ebf;rounded=1;" vertex="1" parent="1">
          <mxGeometry x="3010" y="240" width="120" height="60" as="geometry" />
        </mxCell>
        <mxCell id="oWvnXfuGY_ad9esaMSXd-106" value="" style="rounded=0;whiteSpace=wrap;html=1;fillColor=#e3c800;fontColor=#000000;strokeColor=#B09500;" vertex="1" parent="1">
          <mxGeometry x="2860" y="380" width="150" height="260" as="geometry" />
        </mxCell>
        <mxCell id="oWvnXfuGY_ad9esaMSXd-107" value="MongoDB&lt;br&gt;Primary" style="rounded=1;whiteSpace=wrap;html=1;fillColor=#647687;fontColor=#ffffff;strokeColor=#314354;" vertex="1" parent="1">
          <mxGeometry x="2870" y="400" width="120" height="50" as="geometry" />
        </mxCell>
        <mxCell id="oWvnXfuGY_ad9esaMSXd-108" value="MongoDB&lt;br style=&quot;border-color: var(--border-color);&quot;&gt;Secondary" style="rounded=1;whiteSpace=wrap;html=1;fillColor=#647687;fontColor=#ffffff;strokeColor=#314354;" vertex="1" parent="1">
          <mxGeometry x="2870" y="470" width="120" height="60" as="geometry" />
        </mxCell>
        <mxCell id="oWvnXfuGY_ad9esaMSXd-109" value="MongoDB&lt;br style=&quot;border-color: var(--border-color);&quot;&gt;Secondary" style="rounded=1;whiteSpace=wrap;html=1;fillColor=#647687;fontColor=#ffffff;strokeColor=#314354;" vertex="1" parent="1">
          <mxGeometry x="2870" y="555" width="120" height="60" as="geometry" />
        </mxCell>
        <mxCell id="oWvnXfuGY_ad9esaMSXd-110" value="" style="rounded=0;whiteSpace=wrap;html=1;fillColor=#e3c800;fontColor=#000000;strokeColor=#B09500;" vertex="1" parent="1">
          <mxGeometry x="3060" y="380" width="150" height="260" as="geometry" />
        </mxCell>
        <mxCell id="oWvnXfuGY_ad9esaMSXd-111" value="MongoDB&lt;br&gt;Primary" style="rounded=1;whiteSpace=wrap;html=1;fillColor=#647687;fontColor=#ffffff;strokeColor=#314354;" vertex="1" parent="1">
          <mxGeometry x="3070" y="400" width="120" height="50" as="geometry" />
        </mxCell>
        <mxCell id="oWvnXfuGY_ad9esaMSXd-112" value="MongoDB&lt;br style=&quot;border-color: var(--border-color);&quot;&gt;Secondary" style="rounded=1;whiteSpace=wrap;html=1;fillColor=#647687;fontColor=#ffffff;strokeColor=#314354;" vertex="1" parent="1">
          <mxGeometry x="3070" y="470" width="120" height="60" as="geometry" />
        </mxCell>
        <mxCell id="oWvnXfuGY_ad9esaMSXd-113" value="MongoDB&lt;br style=&quot;border-color: var(--border-color);&quot;&gt;Secondary" style="rounded=1;whiteSpace=wrap;html=1;fillColor=#647687;fontColor=#ffffff;strokeColor=#314354;" vertex="1" parent="1">
          <mxGeometry x="3070" y="555" width="120" height="60" as="geometry" />
        </mxCell>
        <mxCell id="oWvnXfuGY_ad9esaMSXd-119" value="" style="endArrow=classic;html=1;rounded=0;exitX=0.5;exitY=1;exitDx=0;exitDy=0;entryX=0.5;entryY=0;entryDx=0;entryDy=0;" edge="1" parent="1" source="oWvnXfuGY_ad9esaMSXd-69" target="oWvnXfuGY_ad9esaMSXd-104">
          <mxGeometry width="50" height="50" relative="1" as="geometry">
            <mxPoint x="3000" y="340" as="sourcePoint" />
            <mxPoint x="3010" y="240" as="targetPoint" />
          </mxGeometry>
        </mxCell>
        <mxCell id="oWvnXfuGY_ad9esaMSXd-122" value="shard2" style="text;html=1;align=center;verticalAlign=middle;resizable=0;points=[];autosize=1;strokeColor=#b85450;fillColor=#f8cecc;" vertex="1" parent="1">
          <mxGeometry x="2860" y="370" width="60" height="30" as="geometry" />
        </mxCell>
        <mxCell id="oWvnXfuGY_ad9esaMSXd-123" value="shard1" style="text;html=1;align=center;verticalAlign=middle;resizable=0;points=[];autosize=1;strokeColor=#b85450;fillColor=#f8cecc;" vertex="1" parent="1">
          <mxGeometry x="2670" y="370" width="60" height="30" as="geometry" />
        </mxCell>
        <mxCell id="oWvnXfuGY_ad9esaMSXd-65" value="shardN" style="text;html=1;align=center;verticalAlign=middle;resizable=0;points=[];autosize=1;strokeColor=#b85450;fillColor=#f8cecc;" vertex="1" parent="1">
          <mxGeometry x="3060" y="370" width="60" height="30" as="geometry" />
        </mxCell>
        <mxCell id="oWvnXfuGY_ad9esaMSXd-124" value="........" style="text;html=1;align=center;verticalAlign=middle;resizable=0;points=[];autosize=1;strokeColor=none;fillColor=none;" vertex="1" parent="1">
          <mxGeometry x="3010" y="490" width="50" height="30" as="geometry" />
        </mxCell>
        <mxCell id="oWvnXfuGY_ad9esaMSXd-125" value="mongos" style="whiteSpace=wrap;html=1;fillColor=#dae8fc;strokeColor=#6c8ebf;rounded=1;" vertex="1" parent="1">
          <mxGeometry x="2770" y="240" width="120" height="60" as="geometry" />
        </mxCell>
        <mxCell id="oWvnXfuGY_ad9esaMSXd-127" value="&lt;font style=&quot;font-size: 17px;&quot;&gt;Sharding集群&lt;/font&gt;" style="rounded=0;whiteSpace=wrap;html=1;fillColor=#fa6800;fontColor=#000000;strokeColor=#C73500;" vertex="1" parent="1">
          <mxGeometry x="2580" width="120" height="60" as="geometry" />
        </mxCell>
      </root>
    </mxGraphModel>
  </diagram>
</mxfile>
